# xmcd CD database file
#
# Track frame offsets:
#	150
#	13937
#	33744
#	56911
#	78245
#	96150
#	115624
#	135871
#	156063
#	171710
#
# Disc length: 2667 seconds
#
# Revision: 0
# Processed by: cddbd v1.5.1PL0 Copyright (c) Steve Scherf et al.
# Submitted via: CDex 1.51
#
DISCID=7f0a690a
DTITLE=松任谷由実 - ＯＬＩＶＥ
DYEAR=1979
DGENRE=J-pop
TTITLE0=未来は霧の中に
TTITLE1=青いエアメイル
TTITLE2=ツバメのように
TTITLE3=最後の春休み
TTITLE4=甘い予感
TTITLE5=帰愁
TTITLE6=冷たい雨
TTITLE7=風の中の栗毛
TTITLE8=稲妻の少女
TTITLE9=りんごのにおいと風の国
EXTD=YEAR: 1979
EXTT0=
EXTT1=
EXTT2=
EXTT3=
EXTT4=
EXTT5=
EXTT6=
EXTT7=
EXTT8=
EXTT9=
PLAYORDER=
